<?xml version="1.0" standalone="no"?><!DOCTYPE svg PUBLIC "-//W3C//DTD SVG 1.1//EN" "http://www.w3.org/Graphics/SVG/1.1/DTD/svg11.dtd"><svg t="1612417184309" class="icon" viewBox="0 0 1024 1024" version="1.1" xmlns="http://www.w3.org/2000/svg" p-id="17223" xmlns:xlink="http://www.w3.org/1999/xlink" width="64" height="64"><defs><style type="text/css"></style></defs><path d="M512 128a384 384 0 1 0 0 768 384 384 0 0 0 0-768zM42.666667 512C42.666667 252.8 252.8 42.666667 512 42.666667s469.333333 210.133333 469.333333 469.333333-210.133333 469.333333-469.333333 469.333333S42.666667 771.2 42.666667 512z" fill="#75C82B" p-id="17224"></path><path d="M561.621333 394.752a42.666667 42.666667 0 0 1 14.08 37.205333l-34.986666 279.552 24.917333-6.229333a42.666667 42.666667 0 1 1 20.736 82.773333l-85.333333 21.333334a42.666667 42.666667 0 0 1-52.693334-46.677334l34.944-279.552-24.917333 6.229334a42.666667 42.666667 0 0 1-20.736-82.773334l85.333333-21.333333a42.666667 42.666667 0 0 1 38.656 9.472zM448 277.333333a42.666667 42.666667 0 0 1 42.666667-42.666666h42.666666a42.666667 42.666667 0 0 1 0 85.333333h-42.666666a42.666667 42.666667 0 0 1-42.666667-42.666667z" fill="#75C82B" p-id="17225"></path></svg>