<?xml version="1.0" encoding="utf-8"?>
<!-- Generator: Adobe Illustrator 25.1.0, SVG Export Plug-In . SVG Version: 6.00 Build 0)  -->
<svg version="1.1" id="icon-faster" xmlns="http://www.w3.org/2000/svg" xmlns:xlink="http://www.w3.org/1999/xlink" x="0px"
	 y="0px" viewBox="0 0 87 87" style="enable-background:new 0 0 87 87;" xml:space="preserve">
<style type="text/css">
	.st0{fill:#F8F8F8;}
	.st1{fill:#13294B;}
	.st2{fill:#00B5E2;}
</style>
<circle id="circle" class="st0" cx="43.5" cy="43.5" r="43.5"/>
<path class="st1" d="M66.1,42.7C65.4,31,56,21.7,44.3,21c-0.7,0-1.2,0-1.6,0c-0.3,0-0.6,0-1,0c-5.6,0.3-10.7,2.6-14.5,6.2L29,29
	c3.7-3.4,8.6-5.5,14-5.6c11.3,0,20.4,9.1,20.4,20.4l0,0c0,11.3-9.2,20.4-20.4,20.4c-5.6,0-10.6-2.2-14.3-5.8l-1.9,1.9
	c4.5,4.4,10.7,6.9,17.5,6.6C57.1,66.3,66.8,55.4,66.1,42.7z"/>
<path class="st2" d="M31.1,44.8H12.7c-0.7,0-1.3-0.6-1.3-1.3s0.6-1.3,1.3-1.3h18.4c0.7,0,1.3,0.6,1.3,1.3S31.8,44.8,31.1,44.8z"/>
<path class="st2" d="M35.1,37.8H19.7c-0.7,0-1.3-0.6-1.3-1.3s0.6-1.3,1.3-1.3h15.4c0.7,0,1.3,0.6,1.3,1.3S35.8,37.8,35.1,37.8z"/>
<path class="st2" d="M35.1,51.8H19.7c-0.7,0-1.3-0.6-1.3-1.3s0.6-1.3,1.3-1.3h15.4c0.7,0,1.3,0.6,1.3,1.3S35.8,51.8,35.1,51.8z"/>
<path class="st2" d="M44,45.3c-0.3,0-0.7-0.1-0.9-0.4c-0.5-0.5-0.5-1.3,0-1.8l10.6-10.6c0.5-0.5,1.3-0.5,1.8,0s0.5,1.3,0,1.8
	L44.9,44.9C44.7,45.2,44.3,45.3,44,45.3z"/>
<circle id="Ellipse_326" class="st1" cx="44" cy="44" r="3"/>
</svg>
