<?xml version="1.0" standalone="no"?><!DOCTYPE svg PUBLIC "-//W3C//DTD SVG 1.1//EN" "http://www.w3.org/Graphics/SVG/1.1/DTD/svg11.dtd"><svg t="1619418689510" class="icon" viewBox="0 0 1024 1024" version="1.1" xmlns="http://www.w3.org/2000/svg" p-id="1181" xmlns:xlink="http://www.w3.org/1999/xlink" width="200" height="200"><defs><style type="text/css"></style></defs><path d="M828.5696 305.425067c-38.30784 0-73.038507 15.233707-98.532693 39.936l-161.675947-115.770027c1.006933-4.225707 1.600853-8.615253 1.600853-13.154987 0-31.290027-25.367893-56.661333-56.661333-56.661333-31.29344 0-56.664747 25.371307-56.664747 56.661333 0 31.296853 25.371307 56.661333 56.661334 56.661334 10.9568 0 21.152427-3.16416 29.825706-8.546987L741.034667 408.576c15.428267-32.180907 49.4592-57.2416 87.534933-57.2416 52.87936 0 95.747413 42.86464 95.747413 95.744 0 42.257067-27.374933 78.12096-65.358506 90.821973l12.991146 44.066134c57.012907-18.322773 98.269867-71.7824 98.269867-134.888107 0-78.2336-63.41632-141.653333-141.653333-141.653333" fill="#0A7BFF" p-id="1182"></path><path d="M374.40512 167.819947c-11.567787 36.416853-7.5776 74.0352 8.209067 105.734826l-158.877014 118.729387a56.569173 56.569173 0 0 0-12.025173-5.492053c-29.750613-9.448107-61.528747 7.007573-70.976853 36.754773-9.448107 29.750613 7.007573 61.528747 36.75136 70.976853 29.750613 9.45152 61.528747-7.00416 70.980266-36.75136 3.310933-10.417493 3.3792-21.06368 0.877227-30.931626l196.686507-144.653654c-25.934507-24.384853-39.482027-64.3072-27.989334-100.502186 15.9744-50.26816 69.669547-78.076587 119.94112-62.1056 40.168107 12.75904 65.993387 49.6128 66.604374 89.55904l45.810346 0.955733c-0.201387-59.733333-38.567253-115.101013-98.553173-134.157653-74.369707-23.62368-153.81504 17.5104-177.43872 91.886933" fill="#EB3D00" p-id="1183"></path><path d="M111.991467 550.731093a141.202773 141.202773 0 0 0 102.546773 25.982294l62.675627 187.316906a55.66464 55.66464 0 0 0-8.946347 9.557334c-18.220373 24.971947-12.581547 60.112213 12.602027 78.486186 25.18016 18.373973 60.3648 13.021867 78.585173-11.95008 18.2272-24.971947 12.58496-60.1088-12.5952-78.486186a56.429227 56.429227 0 0 0-28.975787-10.683734l-75.38688-231.144106c-31.156907 16.622933-73.130667 16.64-103.77216-5.71392-42.5472-31.051093-52.08064-90.426027-21.28896-132.625067 24.610133-33.723733 67.515733-46.271147 105.472-34.10944l15.209814-42.789547c-56.54528-18.858667-120.879787-0.413013-157.62432 49.94048-45.554347 62.43328-31.450453 150.285653 31.501653 196.21888" fill="#00BCD4" p-id="1184"></path><path d="M837.23264 770.860373c-11.6736-36.123307-36.693333-64.208213-67.87072-80.6912l60.484267-187.904a56.6272 56.6272 0 0 0 12.957013-2.522453c29.661867-9.58464 45.9776-41.27744 36.450987-70.782293-9.53344-29.51168-41.30816-45.663573-70.97344-36.078934-29.661867 9.577813-45.984427 41.2672-36.450987 70.77888a55.630507 55.630507 0 0 0 17.189547 25.504427l-76.233387 230.741333c35.208533 4.68992 69.331627 29.105493 80.930133 65.010347 16.110933 49.8688-11.4688 103.417173-61.590186 119.610027-40.055467 12.939947-82.39104-1.890987-106.001067-33.819307l-37.812907 25.746773c34.73408 48.14848 97.983147 70.690133 157.7984 51.36384 74.15808-23.958187 114.95424-103.185067 91.122347-176.95744" fill="#86C351" p-id="1185"></path><path d="M398.41792 922.432853c30.73024-22.483627 49.65376-55.087787 55.606613-89.873066l197.65248-2.013867c1.675947 3.979947 3.77856 7.850667 6.44096 11.48928 18.37056 25.105067 53.609813 30.5664 78.71488 12.199253 25.10848-18.367147 30.5664-53.6064 12.202667-78.711466-18.37056-25.10848-53.609813-30.569813-78.71488-12.202667a55.995733 55.995733 0 0 0-18.909867 24.36096l-243.31264 0.621227c6.51264 34.874027-6.075733 74.949973-36.625066 97.30048-42.420907 31.03744-101.973333 21.8112-133.010774-20.61312-24.80128-33.901227-23.88992-78.738773-0.877226-111.223467l-36.287147-27.726507c-34.983253 48.162133-36.70016 115.268267 0.334507 165.891414 45.919573 62.767787 134.024533 76.42112 196.785493 30.501546" fill="#9032E9" p-id="1186"></path></svg>