<?xml version="1.0" standalone="no"?><!DOCTYPE svg PUBLIC "-//W3C//DTD SVG 1.1//EN" "http://www.w3.org/Graphics/SVG/1.1/DTD/svg11.dtd"><svg t="1612417276453" class="icon" viewBox="0 0 1024 1024" version="1.1" xmlns="http://www.w3.org/2000/svg" p-id="20420" xmlns:xlink="http://www.w3.org/1999/xlink" width="64" height="64"><defs><style type="text/css"></style></defs><path d="M512 949.138286c238.72 0 437.138286-197.997714 437.138286-437.138286 0-238.72-198.857143-437.138286-437.577143-437.138286C272.438857 74.861714 74.88 273.28 74.88 512c0 239.140571 197.997714 437.138286 437.138286 437.138286z m-3.858286-589.714286a55.332571 55.332571 0 0 1-55.716571-55.716571c0-31.268571 24.429714-56.137143 55.716571-56.137143 31.268571 0 55.716571 24.868571 55.716572 56.137143a55.332571 55.332571 0 0 1-55.716572 55.716571z m-71.570285 388.297143c-17.152 0-30.866286-12.434286-30.866286-30.006857 0-16.713143 13.714286-29.988571 30.866286-29.988572h53.577142V490.989714h-46.299428c-17.133714 0-30.848-12.434286-30.848-30.006857 0-16.713143 13.714286-29.988571 30.848-29.988571h81.005714c21.430857 0 33.426286 15.414857 33.426286 38.564571v218.148572h53.138286c17.572571 0 31.286857 13.275429 31.286857 29.988571 0 17.554286-13.714286 29.988571-31.268572 29.988571z" p-id="20421" fill="#3D84E5"></path></svg>